<?xml version="1.0" encoding="iso-8859-1"?>
<!-- Generator: Adobe Illustrator 19.0.0, SVG Export Plug-In . SVG Version: 6.00 Build 0)  -->
<svg version="1.1" id="Layer_1" xmlns="http://www.w3.org/2000/svg" xmlns:xlink="http://www.w3.org/1999/xlink" x="0px" y="0px"
	 viewBox="0 0 297 297" style="enable-background:new 0 0 297 297;" xml:space="preserve">
<g>
	<g>
		<g>
			<g>
				<circle style="fill:#394C81;" cx="148.5" cy="148.5" r="148.5"/>
			</g>
		</g>
	</g>
	<path style="fill:#2C3E66;" d="M226.56,95.434L49.453,210.016l86.402,86.442c4.169,0.352,8.385,0.541,12.645,0.541
		c76.449,0,139.396-57.773,147.587-132.039L226.56,95.434z"/>
	<g>
		<path style="fill:#DFDAD7;" d="M165.983,170.691c11.667,0,22.827,4.769,30.891,13.199l23.962,25.052
			c6.257,6.541,16.226,7.84,23.95,3.12l0,0c7.42-4.534,10.879-13.479,8.44-21.826l-14.761-50.517
			c-7.918-27.097-32.764-45.722-60.994-45.722H119.53c-28.231,0-53.076,18.625-60.994,45.722l-14.761,50.517
			c-2.439,8.346,1.02,17.291,8.44,21.826l0,0c7.724,4.72,17.693,3.421,23.95-3.12l23.962-25.052
			c8.064-8.431,19.224-13.199,30.891-13.199H165.983z"/>
	</g>
	<g>
		<circle style="fill:#99ABD5;" cx="100.298" cy="124.818" r="41.931"/>
	</g>
	<g>
		<circle style="fill:#99ABD5;" cx="196.702" cy="124.818" r="41.931"/>
	</g>
	<g>
		<circle style="fill:#3498DB;" cx="100.298" cy="124.818" r="19.801"/>
	</g>
	<g>
		<circle style="fill:#3498DB;" cx="196.702" cy="124.818" r="19.801"/>
	</g>
	<g>
		<path style="fill:#32373B;" d="M154.771,150.971h-12.543c-1.381,0-2.5-1.119-2.5-2.5s1.119-2.5,2.5-2.5h12.543
			c1.381,0,2.5,1.119,2.5,2.5S156.152,150.971,154.771,150.971z"/>
	</g>
	<g>
		<path style="fill:#32373B;" d="M154.771,159.931h-12.543c-1.381,0-2.5-1.119-2.5-2.5s1.119-2.5,2.5-2.5h12.543
			c1.381,0,2.5,1.119,2.5,2.5S156.152,159.931,154.771,159.931z"/>
	</g>
</g>
<g>
</g>
<g>
</g>
<g>
</g>
<g>
</g>
<g>
</g>
<g>
</g>
<g>
</g>
<g>
</g>
<g>
</g>
<g>
</g>
<g>
</g>
<g>
</g>
<g>
</g>
<g>
</g>
<g>
</g>
</svg>
