<?xml version="1.0" encoding="iso-8859-1"?>
<!-- Generator: Adobe Illustrator 19.0.0, SVG Export Plug-In . SVG Version: 6.00 Build 0)  -->
<svg version="1.1" id="Layer_1" xmlns="http://www.w3.org/2000/svg" xmlns:xlink="http://www.w3.org/1999/xlink" x="0px" y="0px"
	 viewBox="0 0 460 460" style="enable-background:new 0 0 460 460;" xml:space="preserve">
<g id="XMLID_941_">
	<path id="XMLID_942_" style="fill:#FFE278;" d="M242.364,459.667l208.068-295.465C422.129,69.243,334.158,0,230,0
		C102.974,0,0,102.975,0,230s102.974,230,230,230C234.149,460,238.27,459.884,242.364,459.667z"/>
	<path id="XMLID_943_" style="fill:#FFC85F;" d="M242.364,459.667C363.64,453.242,460,352.877,460,230
		c0-22.868-3.354-44.949-9.568-65.797L415,128.77l-71,35L116,217.5l80.492,80.492l-65.262,50.541L242.364,459.667z"/>
	<polygon id="XMLID_944_" style="fill:#487ED2;" points="116,153.77 116,217.5 230,253.32 230,153.77 	"/>
	<polygon id="XMLID_945_" style="fill:#1D54BD;" points="344,153.77 344,217.5 230,253.32 230,153.77 	"/>
	<polygon id="XMLID_946_" style="fill:#12398F;" points="230,128.77 45,128.77 45,163.77 230,163.77 240,146.27 	"/>
	<polyline id="XMLID_947_" style="fill:#071E61;" points="230,128.77 415,128.77 415,163.77 230,163.77 	"/>
	<rect id="XMLID_948_" x="368" y="128.77" style="fill:#FFF2D4;" width="20" height="173.861"/>
	<path id="XMLID_949_" style="fill:#FE843F;" d="M378,290.41c-8.284,0-15,6.716-15,15v58.354h30V305.41
		C393,297.126,386.284,290.41,378,290.41z"/>
	<path id="XMLID_950_" style="fill:#FC5A37;" d="M378,270.41c8.28,0,15,6.72,15,15s-6.72,15-15,15s-15-6.72-15-15
		S369.72,270.41,378,270.41z"/>
	<path id="XMLID_951_" style="fill:#487ED2;" d="M292,259.764c-25.297,0-46.366,18.067-51.029,42H210v20h30.971
		c4.664,23.933,25.732,42,51.029,42c28.719,0,52-23.281,52-52S320.719,259.764,292,259.764z"/>
	<path id="XMLID_952_" style="fill:#FFF2D4;" d="M292,343.764c-17.645,0-32-14.355-32-32s14.355-32,32-32s32,14.355,32,32
		S309.645,343.764,292,343.764z"/>
	<circle id="XMLID_953_" style="fill:#73A7E6;" cx="168" cy="311.764" r="52"/>
	<path id="XMLID_954_" style="fill:#FFFFFF;" d="M168,343.764c-17.645,0-32-14.355-32-32s14.355-32,32-32s32,14.355,32,32
		S185.645,343.764,168,343.764z"/>
</g>
<g>
</g>
<g>
</g>
<g>
</g>
<g>
</g>
<g>
</g>
<g>
</g>
<g>
</g>
<g>
</g>
<g>
</g>
<g>
</g>
<g>
</g>
<g>
</g>
<g>
</g>
<g>
</g>
<g>
</g>
</svg>
